<svg xmlns="http://www.w3.org/2000/svg" width="100%" height="100%" viewBox="0 0 500 500"><defs><linearGradient id="bgGradient" x1="0%" x2="100%" y1="0%" y2="100%"><stop offset="0%" stop-color="#1a2980"/><stop offset="100%" stop-color="#26d0ce"/></linearGradient><linearGradient id="circleGradient" x1="0%" x2="100%" y1="0%" y2="100%"><stop offset="0%" stop-color="#fff" stop-opacity=".2"/><stop offset="100%" stop-color="#fff" stop-opacity=".05"/></linearGradient></defs><rect width="500" height="500" fill="url(#bgGradient)"/><circle cx="100" cy="100" r="80" fill="url(#circleGradient)"/><circle cx="400" cy="400" r="120" fill="url(#circleGradient)"/><circle cx="420" cy="100" r="60" fill="url(#circleGradient)"/><circle cx="80" cy="380" r="70" fill="url(#circleGradient)"/><path fill="none" stroke="rgba(255,255,255,0.1)" stroke-width="20" d="M0,350 Q125,450 250,350 T500,350"/><path fill="none" stroke="rgba(255,255,255,0.1)" stroke-width="15" d="M0,380 Q125,280 250,380 T500,380"/><path fill="none" stroke="rgba(255,255,255,0.1)" stroke-width="10" d="M0,410 Q125,310 250,410 T500,410"/><g transform="translate(250, 200) scale(1.0)"><ellipse cx="0" cy="0" fill="none" stroke="rgba(255,255,255,0.2)" stroke-width="3" rx="60" ry="60"/><ellipse cx="0" cy="0" fill="none" stroke="rgba(255,255,255,0.4)" stroke-width="3" rx="45" ry="45"/><ellipse cx="0" cy="0" fill="none" stroke="rgba(255,255,255,0.6)" stroke-width="3" rx="30" ry="30"/><ellipse cx="0" cy="0" fill="#fff" stroke="rgba(255,255,255,0.8)" stroke-width="3" rx="15" ry="15"/><path fill="#fff" d="M-10,0 L0,10 L10,0"/></g><g transform="translate(120, 330) scale(0.55)"><rect width="80" height="160" x="-40" y="-80" fill="rgba(255,255,255,0.2)" stroke="rgba(255,255,255,0.8)" stroke-width="2" rx="10" ry="10"/><rect width="70" height="120" x="-35" y="-70" fill="rgba(255,255,255,0.3)"/><circle cx="0" cy="65" r="5" fill="rgba(255,255,255,0.4)"/><path fill="rgba(255,255,255,0.5)" d="M-25,-60 L25,-60 L25,-30 L10,-15 L-10,-30 L-25,-10 Z"/></g><g transform="translate(360, 290) scale(0.6)"><rect width="100" height="80" x="-50" y="-70" fill="rgba(255,255,255,0.2)" stroke="rgba(255,255,255,0.8)" stroke-width="2" rx="5" ry="5"/><rect width="90" height="70" x="-45" y="-65" fill="rgba(255,255,255,0.3)"/><rect width="120" height="15" x="-60" y="10" fill="rgba(255,255,255,0.2)" rx="3" ry="3"/><path fill="none" stroke="rgba(255,255,255,0.8)" stroke-width="2" d="M-60,10 Q-70,20 -60,30 M60,10 Q70,20 60,30"/><path fill="rgba(255,255,255,0.5)" d="M-40,-60 L40,-60 L40,-40 L-40,-40 Z M-40,-30 L40,-30 L40,-10 L-40,-10 Z"/></g></svg>