<svg xmlns="http://www.w3.org/2000/svg" viewBox="0 0 500 500" width="100%" height="100%">
  <!-- 背景渐变 -->
  <defs>
    <linearGradient id="bgGradient" x1="0%" y1="0%" x2="100%" y2="100%">
      <stop offset="0%" stop-color="#1a2980" />
      <stop offset="100%" stop-color="#26d0ce" />
    </linearGradient>
    <linearGradient id="circleGradient" x1="0%" y1="0%" x2="100%" y2="100%">
      <stop offset="0%" stop-color="#ffffff" stop-opacity="0.2" />
      <stop offset="100%" stop-color="#ffffff" stop-opacity="0.05" />
    </linearGradient>
  </defs>
  
  <!-- 主背景 -->
  <rect width="500" height="500" fill="url(#bgGradient)" />
  
  <!-- 装饰圆形 -->
  <circle cx="100" cy="100" r="80" fill="url(#circleGradient)" />
  <circle cx="400" cy="400" r="120" fill="url(#circleGradient)" />
  <circle cx="420" cy="100" r="60" fill="url(#circleGradient)" />
  <circle cx="80" cy="380" r="70" fill="url(#circleGradient)" />
  
  <!-- 装饰波浪线 -->
  <path d="M0,350 Q125,450 250,350 T500,350" fill="none" stroke="rgba(255,255,255,0.1)" stroke-width="20" />
  <path d="M0,380 Q125,280 250,380 T500,380" fill="none" stroke="rgba(255,255,255,0.1)" stroke-width="15" />
  <path d="M0,410 Q125,310 250,410 T500,410" fill="none" stroke="rgba(255,255,255,0.1)" stroke-width="10" />
  
  <!-- WiFi图标 - 居中，稍大 -->
  <g transform="translate(250, 200) scale(1.0)">
    <ellipse cx="0" cy="0" rx="60" ry="60" fill="none" stroke="rgba(255,255,255,0.2)" stroke-width="3" />
    <ellipse cx="0" cy="0" rx="45" ry="45" fill="none" stroke="rgba(255,255,255,0.4)" stroke-width="3" />
    <ellipse cx="0" cy="0" rx="30" ry="30" fill="none" stroke="rgba(255,255,255,0.6)" stroke-width="3" />
    <ellipse cx="0" cy="0" rx="15" ry="15" fill="#ffffff" stroke="rgba(255,255,255,0.8)" stroke-width="3" />
    <path d="M-10,0 L0,10 L10,0" fill="#ffffff" />
  </g>
  
  <!-- 手机设备图标 -->
  <g transform="translate(120, 330) scale(0.55)">
    <rect x="-40" y="-80" width="80" height="160" rx="10" ry="10" fill="rgba(255,255,255,0.2)" stroke="rgba(255,255,255,0.8)" stroke-width="2" />
    <rect x="-35" y="-70" width="70" height="120" fill="rgba(255,255,255,0.3)" />
    <circle cx="0" cy="65" r="5" fill="rgba(255,255,255,0.4)" />
    <!-- 手机屏幕内容 -->
    <path d="M-25,-60 L25,-60 L25,-30 L10,-15 L-10,-30 L-25,-10 Z" fill="rgba(255,255,255,0.5)" />
  </g>
  
  <!-- 笔记本电脑图标 -->
  <g transform="translate(360, 290) scale(0.6)">
    <!-- 屏幕 -->
    <rect x="-50" y="-70" width="100" height="80" rx="5" ry="5" fill="rgba(255,255,255,0.2)" stroke="rgba(255,255,255,0.8)" stroke-width="2" />
    <rect x="-45" y="-65" width="90" height="70" fill="rgba(255,255,255,0.3)" />
    <!-- 键盘 -->
    <rect x="-60" y="10" width="120" height="15" rx="3" ry="3" fill="rgba(255,255,255,0.2)" />
    <path d="M-60,10 Q-70,20 -60,30 M60,10 Q70,20 60,30" fill="none" stroke="rgba(255,255,255,0.8)" stroke-width="2" />
    <!-- 屏幕内容 -->
    <path d="M-40,-60 L40,-60 L40,-40 L-40,-40 Z M-40,-30 L40,-30 L40,-10 L-40,-10 Z" fill="rgba(255,255,255,0.5)" />
  </g>
</svg>
    